<svg width="20" height="22" viewBox="0 0 20 22" fill="none" xmlns="http://www.w3.org/2000/svg">
<path d="M16.6 21H3.40003C3.08385 21 2.77078 20.9375 2.47881 20.8162C2.18684 20.6948 1.92173 20.517 1.69872 20.2928C1.4757 20.0687 1.29917 19.8027 1.17926 19.5101C1.05936 19.2176 0.998449 18.9042 1.00003 18.588V7.33201C1.00003 6.95001 1.18003 6.59801 1.48003 6.36701L9.26003 1.24101C9.46742 1.08445 9.72018 0.999756 9.98003 0.999756C10.2399 0.999756 10.4926 1.08445 10.7 1.24101L18.52 6.36701C18.82 6.59801 19 6.95001 19 7.33201V18.588C19.0016 18.9042 18.9407 19.2176 18.8208 19.5101C18.7009 19.8027 18.5244 20.0687 18.3013 20.2928C18.0783 20.517 17.8132 20.6948 17.5213 20.8162C17.2293 20.9375 16.9162 21 16.6 21Z" stroke="#9A9595" stroke-width="1.5" stroke-miterlimit="10" stroke-linejoin="round"/>
<path d="M7.8 11H12.2C12.64 11 13 11.36 13 11.8V21H7V11.8C7 11.36 7.36 11 7.8 11Z" stroke="#9A9595" stroke-width="1.5" stroke-miterlimit="10" stroke-linejoin="round"/>
</svg>
