<svg width="23" height="22" viewBox="0 0 23 22" fill="none" xmlns="http://www.w3.org/2000/svg">
<path d="M17.5 9H12.5" stroke="#9A9595" stroke-width="1.5" stroke-linecap="round"/>
<path d="M9.5 2H16C16.464 2 16.697 2 16.892 2.026C17.5465 2.11232 18.1543 2.41211 18.6211 2.87893C19.0879 3.34574 19.3877 3.9535 19.474 4.608C19.5 4.803 19.5 5.036 19.5 5.5" stroke="#9A9595" stroke-width="1.5"/>
<path d="M1.5 5.95C1.5 5.067 1.5 4.626 1.57 4.258C1.71922 3.46784 2.10314 2.741 2.67165 2.17231C3.24017 1.60361 3.96689 1.21947 4.757 1.07C5.126 1 5.568 1 6.45 1C6.836 1 7.03 1 7.216 1.017C8.01705 1.09223 8.77679 1.40728 9.396 1.921C9.54 2.04 9.676 2.176 9.95 2.45L10.5 3C11.316 3.816 11.724 4.224 12.212 4.495C12.4802 4.64449 12.7648 4.7626 13.06 4.847C13.598 5 14.175 5 15.328 5H15.702C18.334 5 19.651 5 20.506 5.77C20.5853 5.84 20.66 5.91467 20.73 5.994C21.5 6.849 21.5 8.166 21.5 10.798V13C21.5 16.771 21.5 18.657 20.328 19.828C19.156 20.999 17.271 21 13.5 21H9.5C5.729 21 3.843 21 2.672 19.828C1.501 18.656 1.5 16.771 1.5 13V5.95Z" stroke="#9A9595" stroke-width="1.5"/>
</svg>
