<svg width="30" height="30" viewBox="0 0 30 30" fill="none" xmlns="http://www.w3.org/2000/svg">
<rect width="30" height="30" rx="15" fill="#DDDDDE"/>
<path d="M10.8287 16L15.7287 20.9C15.9287 21.1 16.0247 21.3334 16.0167 21.6C16.0087 21.8667 15.9044 22.1 15.7037 22.3C15.5037 22.4834 15.2704 22.5794 15.0037 22.588C14.7371 22.5967 14.5037 22.5007 14.3037 22.3L7.70375 15.7C7.60375 15.6 7.53275 15.4917 7.49075 15.375C7.44875 15.2584 7.42842 15.1334 7.42975 15C7.43108 14.8667 7.45208 14.7417 7.49275 14.625C7.53342 14.5084 7.60408 14.4 7.70475 14.3L14.3047 7.70005C14.4881 7.51672 14.7174 7.42505 14.9927 7.42505C15.2681 7.42505 15.5054 7.51672 15.7047 7.70005C15.9047 7.90005 16.0047 8.13772 16.0047 8.41305C16.0047 8.68838 15.9047 8.92572 15.7047 9.12505L10.8287 14H22.0037C22.2871 14 22.5247 14.096 22.7167 14.288C22.9087 14.48 23.0044 14.7174 23.0037 15C23.0031 15.2827 22.9071 15.5204 22.7157 15.713C22.5244 15.9057 22.2871 16.0014 22.0037 16H10.8287Z" fill="black"/>
</svg>
