<svg width="38" height="38" viewBox="0 0 38 38" fill="none" xmlns="http://www.w3.org/2000/svg">
<rect width="38" height="38" rx="19" fill="#D5D5D5"/>
<path d="M11.2404 11.4H15.5059L16.8805 14.8371L14.6718 16.3096C14.5417 16.3964 14.4351 16.5139 14.3613 16.6518C14.2876 16.7897 14.249 16.9436 14.249 17.1C14.2519 17.1893 14.249 17.101 14.249 17.101V17.1209C14.2495 17.1634 14.2514 17.2058 14.2547 17.2482C14.2598 17.3267 14.2709 17.4312 14.288 17.5617C14.325 17.8182 14.3963 18.1716 14.535 18.5877C14.8143 19.4237 15.3615 20.5058 16.4274 21.5717C17.4933 22.6376 18.5753 23.1848 19.4104 23.4641C19.8274 23.6028 20.1799 23.6731 20.4383 23.7111C20.584 23.7322 20.7309 23.7449 20.8781 23.7491L20.8905 23.75H20.8981C20.8981 23.75 21.0045 23.7443 20.899 23.75C21.0754 23.7499 21.2483 23.7007 21.3983 23.6079C21.5483 23.5151 21.6695 23.3824 21.7483 23.2247L22.3848 21.9517L26.599 22.6547V26.7587C24.5936 27.0484 19.1767 27.3344 14.9207 23.0784C10.6647 18.8224 10.9497 13.4045 11.2404 11.4ZM16.2184 17.5617L17.935 16.4179C18.2977 16.176 18.5661 15.8168 18.6954 15.4004C18.8246 14.9841 18.8067 14.536 18.6447 14.1313L17.27 10.6942C17.129 10.3416 16.8855 10.0394 16.5711 9.82657C16.2566 9.61372 15.8856 9.49997 15.5059 9.5H11.191C10.3274 9.5 9.51519 10.0995 9.37364 11.0362C9.05064 13.1661 8.61269 19.457 13.5774 24.4217C18.5421 29.3864 24.833 28.9475 26.9629 28.6254C27.8996 28.4829 28.499 27.6716 28.499 26.8081V22.6547C28.4991 22.2049 28.3396 21.7697 28.0489 21.4265C27.7582 21.0833 27.3552 20.8543 26.9116 20.7803L22.6974 20.0783C22.2966 20.0113 21.8849 20.0747 21.5227 20.259C21.1606 20.4434 20.8671 20.7389 20.6853 21.1024L20.3566 21.7607C20.2404 21.7318 20.1254 21.6985 20.0117 21.661C19.4227 21.4653 18.6048 21.0625 17.7707 20.2284C16.9366 19.3943 16.5338 18.5763 16.3381 17.9864C16.292 17.8467 16.2523 17.705 16.2193 17.5617H16.2184Z" fill="black"/>
</svg>
