<svg width="38" height="38" viewBox="0 0 38 38" fill="none" xmlns="http://www.w3.org/2000/svg">
<rect width="38" height="38" rx="19" fill="#D5D5D5"/>
<path d="M15.2031 16.15H22.8031M15.2031 19.95H20.9031M24.7031 11.4C25.459 11.4 26.1839 11.7003 26.7184 12.2348C27.2529 12.7692 27.5531 13.4942 27.5531 14.25V21.85C27.5531 22.6059 27.2529 23.3308 26.7184 23.8653C26.1839 24.3998 25.459 24.7 24.7031 24.7H19.9531L15.2031 27.55V24.7H13.3031C12.5473 24.7 11.8223 24.3998 11.2879 23.8653C10.7534 23.3308 10.4531 22.6059 10.4531 21.85V14.25C10.4531 13.4942 10.7534 12.7692 11.2879 12.2348C11.8223 11.7003 12.5473 11.4 13.3031 11.4H24.7031Z" stroke="black" stroke-width="1.9" stroke-linecap="round" stroke-linejoin="round"/>
</svg>
