<svg width="28" height="28" viewBox="0 0 28 28" fill="none" xmlns="http://www.w3.org/2000/svg">
<rect width="28" height="28" rx="14" fill="#D5D5D5"/>
<path d="M16.1451 9.29797L20.105 13.2579C20.3017 13.4547 20.4121 13.7216 20.4121 13.9999C20.4121 14.2781 20.3017 14.545 20.105 14.7419L16.1458 18.7025C15.9488 18.8995 15.6817 19.0101 15.4031 19.0101C15.1246 19.0101 14.8574 18.8995 14.6604 18.7025C14.4634 18.5055 14.3528 18.2383 14.3528 17.9598C14.3528 17.6812 14.4634 17.4141 14.6604 17.2171L16.8276 15.0499H8.75312C8.47465 15.0499 8.20758 14.9392 8.01066 14.7423C7.81375 14.5454 7.70312 14.2784 7.70312 13.9999C7.70312 13.7214 7.81375 13.4543 8.01066 13.2574C8.20758 13.0605 8.47465 12.9499 8.75312 12.9499H16.8276L14.6611 10.7827C14.4642 10.5857 14.3537 10.3186 14.3537 10.0401C14.3538 9.76157 14.4645 9.49451 14.6615 9.29762C14.8585 9.10074 15.1256 8.99017 15.4041 8.99023C15.6826 8.9903 15.9496 9.101 16.1465 9.29797H16.1451Z" fill="black"/>
</svg>
