<svg width="46" height="45" viewBox="0 0 46 45" fill="none" xmlns="http://www.w3.org/2000/svg">
<rect x="0.5" width="45" height="45" rx="22.5" fill="#C4F9B0"/>
<path d="M10.5 19.3733C10.5 15.7733 13.66 13 17.3667 13C19.2773 13 20.96 13.896 22.1667 15.056C23.3733 13.896 25.0547 13 26.9667 13C30.6733 13 33.8333 15.7733 33.8333 19.3733C33.8333 19.5893 33.8253 19.8036 33.8093 20.016C33.8012 20.1136 33.7564 20.2045 33.6839 20.2703C33.6114 20.3362 33.5166 20.372 33.4187 20.3707H32.2227C32.1646 20.3695 32.1074 20.3563 32.0546 20.3319C32.0019 20.3076 31.9548 20.2726 31.9162 20.2291C31.8776 20.1857 31.8485 20.1347 31.8305 20.0794C31.8126 20.0242 31.8063 19.9658 31.812 19.908C31.8253 19.7311 31.8324 19.5529 31.8333 19.3733C31.8333 17.04 29.74 15 26.9667 15C25.3747 15 23.8867 15.9507 22.96 17.1587C22.8666 17.2804 22.7465 17.3789 22.6089 17.4468C22.4714 17.5146 22.32 17.5499 22.1667 17.5499C22.0133 17.5499 21.862 17.5146 21.7244 17.4468C21.5868 17.3789 21.4667 17.2804 21.3733 17.1587C20.4467 15.9507 18.96 15 17.3667 15C14.5933 15 12.5 17.04 12.5 19.3733C12.5 21.244 13.2947 22.9867 14.5747 24.5973C15.8573 26.2107 17.584 27.636 19.328 28.844C19.988 29.3013 20.608 29.6893 21.1413 29.9613C21.712 30.252 22.0427 30.3333 22.1667 30.3333C22.2907 30.3333 22.6213 30.252 23.1933 29.96C23.8219 29.6287 24.4277 29.2558 25.0067 28.844C25.5733 28.4507 26.14 28.0347 26.6893 27.596C26.7348 27.5593 26.7877 27.5328 26.8444 27.5184C26.9011 27.504 26.9603 27.5021 27.0178 27.5128C27.0753 27.5234 27.1298 27.5464 27.1776 27.5801C27.2254 27.6138 27.2653 27.6574 27.2947 27.708L27.896 28.76C27.9423 28.8422 27.9581 28.9382 27.9405 29.0309C27.923 29.1236 27.8732 29.2071 27.8 29.2667C27.2507 29.7013 26.6933 30.1067 26.144 30.488C25.4903 30.9496 24.8075 31.3687 24.1 31.7427C23.496 32.0507 22.8 32.3333 22.1667 32.3333C21.5333 32.3333 20.8387 32.0507 20.2333 31.7427C19.5258 31.3687 18.8431 30.9496 18.1893 30.488C16.3667 29.2253 14.464 27.672 13.0093 25.8427C11.552 24.008 10.5 21.84 10.5 19.3733Z" fill="#39333D"/>
<path d="M27.2453 18.9173C27.1747 18.7634 27.0662 18.6299 26.9299 18.5294C26.7936 18.4288 26.634 18.3646 26.4661 18.3426C26.2982 18.3206 26.1275 18.3416 25.9699 18.4036C25.8123 18.4657 25.6731 18.5667 25.5653 18.6973L22.8093 22.0373H20.8359C20.5707 22.0373 20.3164 22.1426 20.1288 22.3302C19.9413 22.5177 19.8359 22.7721 19.8359 23.0373C19.8359 23.3025 19.9413 23.5569 20.1288 23.7444C20.3164 23.9319 20.5707 24.0373 20.8359 24.0373H23.2799C23.4275 24.0373 23.5732 24.0047 23.7067 23.9418C23.8402 23.8789 23.9581 23.7872 24.0519 23.6733L26.0919 21.2L28.4826 26.416C28.5532 26.5699 28.6617 26.7034 28.798 26.8039C28.9343 26.9044 29.0938 26.9687 29.2617 26.9907C29.4297 27.0127 29.6004 26.9916 29.758 26.9296C29.9155 26.8676 30.0548 26.7665 30.1626 26.636L32.3066 24.036H35.5026C35.7678 24.036 36.0222 23.9306 36.2097 23.7431C36.3972 23.5555 36.5026 23.3012 36.5026 23.036C36.5026 22.7707 36.3972 22.5164 36.2097 22.3288C36.0222 22.1413 35.7678 22.036 35.5026 22.036H31.8359C31.6885 22.0363 31.5429 22.0692 31.4097 22.1323C31.2765 22.1955 31.1589 22.2873 31.0653 22.4013L29.6359 24.1333L27.2453 18.9173Z" fill="#39333D"/>
</svg>
