<svg width="50" height="50" viewBox="0 0 50 50" fill="none" xmlns="http://www.w3.org/2000/svg">
<path d="M35.437 43.7397L14.6036 43.7595C10.0203 43.7637 6.26719 40.0179 6.26198 35.4345L6.24219 14.6012C6.23802 10.0179 9.98386 6.26475 14.5672 6.25954L35.4005 6.23975C39.9839 6.23558 43.737 9.98142 43.7422 14.5647L43.762 35.3981C43.7672 39.9825 40.0203 43.7356 35.437 43.7397Z" fill="url(#paint0_radial_292_2336)"/>
<path d="M35.437 43.7397L14.6036 43.7595C10.0203 43.7637 6.26719 40.0179 6.26198 35.4345L6.24219 14.6012C6.23802 10.0179 9.98386 6.26475 14.5672 6.25954L35.4005 6.23975C39.9839 6.23558 43.737 9.98142 43.7422 14.5647L43.762 35.3981C43.7672 39.9825 40.0203 43.7356 35.437 43.7397Z" fill="url(#paint1_radial_292_2336)"/>
<path d="M25.0026 32.2918C20.9828 32.2918 17.7109 29.021 17.7109 25.0002C17.7109 20.9793 20.9828 17.7085 25.0026 17.7085C29.0224 17.7085 32.2943 20.9793 32.2943 25.0002C32.2943 29.021 29.0224 32.2918 25.0026 32.2918ZM25.0026 19.7918C22.1307 19.7918 19.7943 22.1283 19.7943 25.0002C19.7943 27.872 22.1307 30.2085 25.0026 30.2085C27.8745 30.2085 30.2109 27.872 30.2109 25.0002C30.2109 22.1283 27.8745 19.7918 25.0026 19.7918Z" fill="white"/>
<path d="M32.8125 18.75C33.6754 18.75 34.375 18.0504 34.375 17.1875C34.375 16.3246 33.6754 15.625 32.8125 15.625C31.9496 15.625 31.25 16.3246 31.25 17.1875C31.25 18.0504 31.9496 18.75 32.8125 18.75Z" fill="white"/>
<path d="M31.2526 38.5418H18.7526C14.7328 38.5418 11.4609 35.271 11.4609 31.2502V18.7502C11.4609 14.7293 14.7328 11.4585 18.7526 11.4585H31.2526C35.2724 11.4585 38.5443 14.7293 38.5443 18.7502V31.2502C38.5443 35.271 35.2724 38.5418 31.2526 38.5418ZM18.7526 13.5418C15.8807 13.5418 13.5443 15.8783 13.5443 18.7502V31.2502C13.5443 34.122 15.8807 36.4585 18.7526 36.4585H31.2526C34.1245 36.4585 36.4609 34.122 36.4609 31.2502V18.7502C36.4609 15.8783 34.1245 13.5418 31.2526 13.5418H18.7526Z" fill="white"/>
<defs>
<radialGradient id="paint0_radial_292_2336" cx="0" cy="0" r="1" gradientUnits="userSpaceOnUse" gradientTransform="translate(20.1901 43.7866) scale(46.7698 46.7698)">
<stop stop-color="#FFDD55"/>
<stop offset="0.328" stop-color="#FF543F"/>
<stop offset="0.348" stop-color="#FC5245"/>
<stop offset="0.504" stop-color="#E64771"/>
<stop offset="0.643" stop-color="#D53E91"/>
<stop offset="0.761" stop-color="#CC39A4"/>
<stop offset="0.841" stop-color="#C837AB"/>
</radialGradient>
<radialGradient id="paint1_radial_292_2336" cx="0" cy="0" r="1" gradientUnits="userSpaceOnUse" gradientTransform="translate(12.2797 5.77131) scale(31.0552 20.6921)">
<stop stop-color="#4168C9"/>
<stop offset="0.999" stop-color="#4168C9" stop-opacity="0"/>
</radialGradient>
</defs>
</svg>
