<svg width="46" height="45" viewBox="0 0 46 45" fill="none" xmlns="http://www.w3.org/2000/svg">
<rect x="0.5" width="45" height="45" rx="22.5" fill="#C4F9B0"/>
<path d="M23 32C21.6167 32 20.3167 31.7373 19.1 31.212C17.8833 30.6867 16.825 29.9743 15.925 29.075C15.025 28.1757 14.3127 27.1173 13.788 25.9C13.2633 24.6827 13.0007 23.3827 13 22C13 21.2833 13.075 20.579 13.225 19.887C13.375 19.195 13.5917 18.5243 13.875 17.875L15.425 19.425C15.2917 19.8583 15.1877 20.2873 15.113 20.712C15.0383 21.1367 15.0007 21.566 15 22C15 24.2333 15.775 26.125 17.325 27.675C18.875 29.225 20.7667 30 23 30C25.2333 30 27.125 29.225 28.675 27.675C30.225 26.125 31 24.2333 31 22C31 19.7667 30.225 17.875 28.675 16.325C27.125 14.775 25.2333 14 23 14C22.55 14 22.1127 14.0373 21.688 14.112C21.2633 14.1867 20.8423 14.291 20.425 14.425L18.9 12.9C19.5667 12.6 20.2333 12.375 20.9 12.225C21.5667 12.075 22.2667 12 23 12C24.3833 12 25.6833 12.2623 26.9 12.787C28.1167 13.3117 29.175 14.0243 30.075 14.925C30.975 15.8257 31.6877 16.884 32.213 18.1C32.7383 19.316 33.0007 20.616 33 22C32.9993 23.384 32.7367 24.684 32.212 25.9C31.6873 27.116 30.975 28.1743 30.075 29.075C29.175 29.9757 28.1167 30.6883 26.9 31.213C25.6833 31.7377 24.3833 32 23 32ZM16.5 17C16.0833 17 15.7293 16.8543 15.438 16.563C15.1467 16.2717 15.0007 15.9173 15 15.5C14.9993 15.0827 15.1453 14.7287 15.438 14.438C15.7307 14.1473 16.0847 14.0013 16.5 14C16.9153 13.9987 17.2697 14.1447 17.563 14.438C17.8563 14.7313 18.002 15.0853 18 15.5C17.998 15.9147 17.8523 16.269 17.563 16.563C17.2737 16.857 16.9193 17.0027 16.5 17Z" fill="#39333D"/>
</svg>
