<svg width="51" height="50" viewBox="0 0 51 50" fill="none" xmlns="http://www.w3.org/2000/svg">
<path d="M46.3307 24.9998C46.3307 36.505 37.0026 45.8332 25.4974 45.8332C13.9922 45.8332 4.66406 36.505 4.66406 24.9998C4.66406 13.4946 13.9922 4.1665 25.4974 4.1665C37.0026 4.1665 46.3307 13.4946 46.3307 24.9998Z" fill="url(#paint0_linear_292_2364)"/>
<path opacity="0.05" d="M11.0386 24.4439C19.5334 20.595 29.5105 16.4189 31.047 15.8148C34.4345 14.4825 35.9116 15.8439 35.6803 18.0158C35.3959 20.6773 34.048 28.4221 33.2188 33.971C32.7334 37.2179 30.9751 38.2127 28.9907 36.9533C27.4855 35.9981 22.3105 32.6096 20.9491 31.4512C20.0209 30.6617 19.3741 29.7762 20.0324 28.8742C20.2251 28.6106 20.7178 28.0794 20.9918 27.8148C22.3657 26.4835 22.1803 26.1971 20.5188 27.3856C20.3209 27.5273 19.173 28.3596 18.7011 28.6742C17.5449 29.445 16.4813 29.4867 14.6782 28.8742C13.2032 28.3731 11.7866 27.9867 10.8928 27.6002C9.65843 27.0658 9.18551 25.2835 11.0386 24.4439Z" fill="black"/>
<path opacity="0.07" d="M11.7856 24.5738C19.6731 21.0478 29.3731 17.0072 30.7919 16.4353C34.1919 15.0624 35.4429 15.877 35.0773 18.5301C34.7377 20.9863 33.5325 28.5863 32.6877 33.6811C32.1898 36.6801 30.7356 37.3405 28.8419 36.1155C27.6554 35.3509 22.8804 32.2051 21.7221 31.2895C20.8263 30.5822 19.8981 29.7655 20.9825 28.5832C21.345 28.1884 23.3471 26.2561 24.844 24.8186C25.7117 23.9843 25.4023 23.5728 24.3554 24.2895C22.4356 25.6051 19.295 27.6874 18.7346 28.0655C17.6669 28.7843 16.6638 28.9572 14.9179 28.4082C13.5419 27.9749 12.2127 27.5551 11.52 27.2853C9.97211 26.6853 9.95127 25.3936 11.7856 24.5738Z" fill="black"/>
<path d="M12.5318 24.7051C19.8131 21.502 29.2349 17.5968 30.536 17.0562C33.9474 15.6416 34.9943 15.9124 34.4724 19.0458C34.0974 21.2978 33.0162 28.753 32.1537 33.3937C31.6422 36.1458 30.4943 36.4718 28.6902 35.2812C27.8224 34.7083 23.4422 31.8114 22.4912 31.1312C21.6235 30.5114 20.4266 29.7655 21.9277 28.2968C22.462 27.7739 25.9631 24.4301 28.6912 21.828C29.0485 21.4864 28.5995 20.9249 28.187 21.1989C24.5099 23.6374 19.412 27.0218 18.7631 27.4624C17.7829 28.128 16.8412 28.4333 15.1516 27.9478C13.8745 27.5812 12.6277 27.1437 12.1422 26.977C10.2724 26.3353 10.7162 25.5041 12.5318 24.7051Z" fill="white"/>
<defs>
<linearGradient id="paint0_linear_292_2364" x1="10.7661" y1="10.2686" x2="40.2286" y2="39.7311" gradientUnits="userSpaceOnUse">
<stop stop-color="#33BEF0"/>
<stop offset="1" stop-color="#0A85D9"/>
</linearGradient>
</defs>
</svg>
