<svg width="45" height="45" viewBox="0 0 45 45" fill="none" xmlns="http://www.w3.org/2000/svg">
<rect width="45" height="45" rx="22.5" fill="#C4F9B0"/>
<path d="M23.0026 8.66663C24.1092 8.66653 25.174 9.08983 25.9785 9.8497C26.783 10.6096 27.2663 11.6485 27.3293 12.7533L27.3359 13L27.3373 23.6026L27.4439 23.6946C28.6854 24.8032 29.4673 26.3361 29.6359 27.992L29.6613 28.328L29.6693 28.6666C29.6695 29.765 29.3982 30.8465 28.8797 31.8148C28.3612 32.7832 27.6115 33.6084 26.6972 34.2171C25.7828 34.8258 24.7323 35.1992 23.6389 35.304C22.5455 35.4089 21.4431 35.2419 20.4298 34.818C19.4165 34.3941 18.5236 33.7264 17.8305 32.8742C17.1375 32.022 16.6657 31.0118 16.4572 29.9334C16.2486 28.8549 16.3098 27.7417 16.6353 26.6926C16.9607 25.6435 17.5403 24.691 18.3226 23.92L18.5626 23.6933L18.6679 23.6026L18.6693 13C18.6691 11.935 19.061 10.9073 19.7702 10.113C20.4795 9.31859 21.4565 8.81322 22.5146 8.69329L22.7573 8.67329L23.0026 8.66663ZM23.0026 10.6666C22.4168 10.6667 21.8525 10.8871 21.4217 11.284C20.9909 11.681 20.7251 12.2255 20.6773 12.8093L20.6693 13V24.5933L20.2573 24.892C19.4701 25.4645 18.8817 26.2689 18.5744 27.1925C18.2671 28.1161 18.2563 29.1127 18.5434 30.0427C18.8306 30.9728 19.4014 31.7897 20.176 32.3792C20.9505 32.9688 21.89 33.3014 22.863 33.3304C23.8359 33.3595 24.7936 33.0836 25.602 32.5414C26.4103 31.9992 27.0289 31.2178 27.3711 30.3065C27.7133 29.3953 27.762 28.3999 27.5104 27.4596C27.2588 26.5193 26.7195 25.6812 25.9679 25.0626L25.7479 24.8933L25.3386 24.5933L25.3359 13C25.3359 12.3811 25.0901 11.7876 24.6525 11.35C24.2149 10.9125 23.6214 10.6666 23.0026 10.6666ZM23.0026 16.6666C23.2678 16.6666 23.5222 16.772 23.7097 16.9595C23.8972 17.1471 24.0026 17.4014 24.0026 17.6666V25.4866C24.7627 25.7256 25.4121 26.2287 25.8333 26.9051C26.2544 27.5814 26.4195 28.3862 26.2987 29.1737C26.1778 29.9612 25.779 30.6794 25.1744 31.1983C24.5698 31.7172 23.7993 32.0025 23.0026 32.0025C22.2059 32.0025 21.4354 31.7172 20.8308 31.1983C20.2262 30.6794 19.8274 29.9612 19.7065 29.1737C19.5857 28.3862 19.7508 27.5814 20.1719 26.9051C20.5931 26.2287 21.2425 25.7256 22.0026 25.4866V17.6666C22.0026 17.4014 22.108 17.1471 22.2955 16.9595C22.483 16.772 22.7374 16.6666 23.0026 16.6666Z" fill="#39333D"/>
</svg>
