<svg width="50" height="50" viewBox="0 0 50 50" fill="none" xmlns="http://www.w3.org/2000/svg">
<path fill-rule="evenodd" clip-rule="evenodd" d="M5.07031 45.1075L7.87656 34.8627C6.14531 31.8647 5.2349 28.4627 5.23594 24.9783C5.24115 14.0772 14.112 5.2085 25.0141 5.2085C30.3047 5.21058 35.2693 7.26995 39.0036 11.0064C42.737 14.7439 44.7932 19.7106 44.7911 24.9939C44.787 35.895 35.9141 44.7647 25.0141 44.7647H25.0057C21.6964 44.7637 18.4432 43.9335 15.5547 42.3575L5.07031 45.1075Z" fill="white"/>
<path fill-rule="evenodd" clip-rule="evenodd" d="M5.06725 45.6281C4.92975 45.6281 4.79642 45.574 4.69746 45.474C4.56725 45.3417 4.51621 45.149 4.56517 44.9708L7.31413 34.9333C5.60996 31.9062 4.711 28.4687 4.71309 24.9792C4.71725 13.7896 13.8225 4.6875 25.011 4.6875C30.4381 4.68958 35.537 6.80313 39.3693 10.6385C43.2016 14.475 45.311 19.5729 45.3089 24.9937C45.3047 36.1823 36.1985 45.2854 25.011 45.2854C21.6891 45.2844 18.4027 44.4646 15.486 42.9135L5.19954 45.6104C5.15579 45.6229 5.11204 45.6281 5.06725 45.6281Z" fill="white"/>
<path fill-rule="evenodd" clip-rule="evenodd" d="M25.0171 5.20817C30.3077 5.21025 35.2723 7.26963 39.0067 11.0061C42.74 14.7436 44.7963 19.7103 44.7942 24.9936C44.79 35.8946 35.9171 44.7644 25.0171 44.7644H25.0088C21.6994 44.7634 18.4463 43.9332 15.5577 42.3571L5.07335 45.1071L7.8796 34.8623C6.14834 31.8644 5.23793 28.4623 5.23897 24.978C5.24418 14.0769 14.115 5.20817 25.0171 5.20817ZM25.0171 4.1665C13.5421 4.1665 4.20251 13.5019 4.1973 24.978C4.19626 28.4853 5.08168 31.9415 6.76085 35.0009L4.06814 44.8332C3.97022 45.1925 4.07022 45.5759 4.33272 45.8405C4.53064 46.0405 4.79835 46.1498 5.07335 46.1498C5.16189 46.1498 5.25043 46.1384 5.33793 46.1155L15.4286 43.4696C18.3744 44.9988 21.6765 45.8061 25.0088 45.8071C36.4921 45.8071 45.8317 36.4707 45.8369 24.9946C45.839 19.4332 43.6754 14.204 39.7452 10.2707C35.8129 6.3363 30.5827 4.16859 25.0171 4.1665Z" fill="#CFD8DC"/>
<path fill-rule="evenodd" clip-rule="evenodd" d="M36.6448 13.3666C33.5406 10.2604 29.4146 8.54889 25.0229 8.54785C15.9562 8.54785 8.58229 15.9187 8.57813 24.9791C8.57708 28.0843 9.44583 31.1072 11.0917 33.7249L11.4833 34.3468L9.82188 40.4103L16.0438 38.7791L16.6448 39.1353C19.1677 40.6333 22.0615 41.4249 25.0115 41.426H25.0177C34.0781 41.426 41.4521 34.0541 41.4552 24.9926C41.4562 20.602 39.749 16.4729 36.6448 13.3666Z" fill="#40C351"/>
<path fill-rule="evenodd" clip-rule="evenodd" d="M20.0682 16.7133C19.6984 15.8904 19.3089 15.8737 18.9557 15.8591C18.6672 15.8466 18.338 15.8477 18.0089 15.8477C17.6797 15.8477 17.1443 15.9716 16.6911 16.4664C16.238 16.9612 14.9609 18.156 14.9609 20.5873C14.9609 23.0185 16.7318 25.3685 16.9786 25.6977C17.2255 26.0268 20.3974 31.1758 25.4203 33.1571C29.5943 34.8029 30.4443 34.4758 31.3505 34.3935C32.2568 34.3112 34.2745 33.1987 34.6859 32.0446C35.0974 30.8904 35.0974 29.9018 34.9745 29.6956C34.8505 29.4893 34.5214 29.3664 34.0276 29.1185C33.5339 28.8706 31.1036 27.6758 30.6505 27.5112C30.1974 27.3466 29.8682 27.2643 29.538 27.7591C29.2089 28.2529 28.262 29.3664 27.9734 29.6956C27.6849 30.0258 27.3964 30.0675 26.9026 29.8196C26.4089 29.5716 24.8172 29.0508 22.9286 27.3675C21.4599 26.0581 20.4682 24.4404 20.1797 23.9456C19.8911 23.4518 20.1484 23.1841 20.3964 22.9373C20.6182 22.7154 20.8901 22.3602 21.138 22.0716C21.3849 21.7831 21.4672 21.5768 21.6318 21.2477C21.7964 20.9175 21.7141 20.6289 21.5901 20.3821C21.4682 20.1341 20.5078 17.6904 20.0682 16.7133Z" fill="white"/>
</svg>
